<svg width="600" height="400" xmlns="http://www.w3.org/2000/svg">
  <rect width="600" height="400" fill="white" stroke="black"/>
  <text x="300" y="30" font-size="16" font-weight="bold" text-anchor="middle">Code Generation Performance (Measured)</text>
  <text x="300" y="380" font-size="12" text-anchor="middle">Template</text>
  <text x="30" y="200" font-size="12" text-anchor="middle" transform="rotate(-90 30 200)">Time (ms)</text>
  
  <!-- Grid lines -->
  <g stroke="lightgray" stroke-width="0.5">
    <line x1="80" y1="340" x2="560" y2="340"/>
    <line x1="80" y1="280" x2="560" y2="280"/>
    <line x1="80" y1="220" x2="560" y2="220"/>
    <line x1="80" y1="160" x2="560" y2="160"/>
    <line x1="80" y1="100" x2="560" y2="100"/>
  </g>
  
  <!-- Axes -->
  <line x1="80" y1="60" x2="80" y2="340" stroke="black" stroke-width="2"/>
  <line x1="80" y1="340" x2="560" y2="340" stroke="black" stroke-width="2"/>
  
  <!-- Y-axis labels -->
  <text x="70" y="345" font-size="10" text-anchor="end">0</text>
  <text x="70" y="285" font-size="10" text-anchor="end">0.5</text>
  <text x="70" y="225" font-size="10" text-anchor="end">1.0</text>
  <text x="70" y="165" font-size="10" text-anchor="end">1.5</text>
  <text x="70" y="105" font-size="10" text-anchor="end">2.0</text>
  <text x="70" y="65" font-size="10" text-anchor="end">2.5</text>
  
  <!-- Bars -->
  <rect x="100" y="100.33815513947047" width="70" height="239.66184486052953" fill="steelblue" opacity="0.8"/>
  <text x="135.0" y="95.33815513947047" font-size="10" text-anchor="middle">2.00ms</text>
  <text x="135.0" y="355" font-size="9" text-anchor="middle">queue_wo</text>
  <rect x="180" y="84.30999504984356" width="70" height="255.69000495015644" fill="steelblue" opacity="0.8"/>
  <text x="215.0" y="79.30999504984356" font-size="10" text-anchor="middle">2.13ms</text>
  <text x="215.0" y="355" font-size="9" text-anchor="middle">rate_lim</text>
  <rect x="260" y="68.04794076364487" width="70" height="271.9520592363551" fill="steelblue" opacity="0.8"/>
  <text x="295.0" y="63.047940763644874" font-size="10" text-anchor="middle">2.27ms</text>
  <text x="295.0" y="355" font-size="9" text-anchor="middle">circuit_</text>
  <rect x="340" y="143.0859436141327" width="70" height="196.9140563858673" fill="steelblue" opacity="0.8"/>
  <text x="375.0" y="138.0859436141327" font-size="10" text-anchor="middle">1.64ms</text>
  <text x="375.0" y="355" font-size="9" text-anchor="middle">retry</text>
  <rect x="420" y="142.7451041038148" width="70" height="197.2548958961852" fill="steelblue" opacity="0.8"/>
  <text x="455.0" y="137.7451041038148" font-size="10" text-anchor="middle">1.64ms</text>
  <text x="455.0" y="355" font-size="9" text-anchor="middle">cache</text>
  <rect x="500" y="83.88169732992537" width="70" height="256.1183026700746" fill="steelblue" opacity="0.8"/>
  <text x="535.0" y="78.88169732992537" font-size="10" text-anchor="middle">2.13ms</text>
  <text x="535.0" y="355" font-size="9" text-anchor="middle">load_bal</text>
</svg>