<svg width="600" height="400" xmlns="http://www.w3.org/2000/svg">
  <rect width="600" height="400" fill="white" stroke="black"/>
  <text x="300" y="30" font-size="16" font-weight="bold" text-anchor="middle">Code Generation Performance (Actual Measurements)</text>
  <text x="300" y="380" font-size="12" text-anchor="middle">Template Type</text>
  <text x="30" y="200" font-size="12" text-anchor="middle" transform="rotate(-90 30 200)">Generation Time (ms)</text>
  <g stroke="lightgray" stroke-width="0.5">
    <line x1="80" y1="80.0" x2="540" y2="80.0"/>
    <text x="70" y="85.0" font-size="10" text-anchor="end">3.0ms</text>
    <line x1="80" y1="160.0" x2="540" y2="160.0"/>
    <text x="70" y="165.0" font-size="10" text-anchor="end">2.0ms</text>
    <line x1="80" y1="240.0" x2="540" y2="240.0"/>
    <text x="70" y="245.0" font-size="10" text-anchor="end">1.0ms</text>
    <line x1="80" y1="320.0" x2="540" y2="320.0"/>
    <text x="70" y="325.0" font-size="10" text-anchor="end">0.0ms</text>
  </g>
  <line x1="80" y1="80" x2="80" y2="320" stroke="black" stroke-width="2"/>
  <line x1="80" y1="320" x2="540" y2="320" stroke="black" stroke-width="2"/>
  <rect x="100" y="93.6" width="70" height="226.4" fill="steelblue" opacity="0.8"/>
  <text x="135.0" y="88.6" font-size="10" text-anchor="middle">2.83ms</text>
  <text x="135.0" y="340" font-size="9" text-anchor="middle" transform="rotate(-45 135.0 340)">Queue Worker</text>
  <rect x="180" y="192.0" width="70" height="128.0" fill="steelblue" opacity="0.8"/>
  <text x="215.0" y="187.0" font-size="10" text-anchor="middle">1.60ms</text>
  <text x="215.0" y="340" font-size="9" text-anchor="middle" transform="rotate(-45 215.0 340)">Rate Limiter</text>
  <rect x="260" y="199.2" width="70" height="120.8" fill="steelblue" opacity="0.8"/>
  <text x="295.0" y="194.2" font-size="10" text-anchor="middle">1.51ms</text>
  <text x="295.0" y="340" font-size="9" text-anchor="middle" transform="rotate(-45 295.0 340)">Circuit Breaker</text>
  <rect x="340" y="203.2" width="70" height="116.8" fill="steelblue" opacity="0.8"/>
  <text x="375.0" y="198.2" font-size="10" text-anchor="middle">1.46ms</text>
  <text x="375.0" y="340" font-size="9" text-anchor="middle" transform="rotate(-45 375.0 340)">Retry Logic</text>
  <rect x="420" y="202.4" width="70" height="117.6" fill="steelblue" opacity="0.8"/>
  <text x="455.0" y="197.4" font-size="10" text-anchor="middle">1.47ms</text>
  <text x="455.0" y="340" font-size="9" text-anchor="middle" transform="rotate(-45 455.0 340)">Cache</text>
  <rect x="500" y="210.39999999999998" width="70" height="109.60000000000001" fill="steelblue" opacity="0.8"/>
  <text x="535.0" y="205.39999999999998" font-size="10" text-anchor="middle">1.37ms</text>
  <text x="535.0" y="340" font-size="9" text-anchor="middle" transform="rotate(-45 535.0 340)">Load Balancer</text>
  <line x1="80" y1="183.46666666666667" x2="540" y2="183.46666666666667" stroke="red" stroke-width="1" stroke-dasharray="5,5"/>
  <text x="520" y="178.46666666666667" font-size="10" text-anchor="end" fill="red">Avg: 1.71ms</text>
</svg>