<svg width="700" height="400" xmlns="http://www.w3.org/2000/svg">
  <rect width="700" height="400" fill="white" stroke="black"/>
  <text x="350" y="30" font-size="16" font-weight="bold" text-anchor="middle">Learning System Convergence (45 Episodes)</text>
  <text x="350" y="380" font-size="12" text-anchor="middle">Episode</text>
  <text x="30" y="200" font-size="12" fill="red" text-anchor="middle" transform="rotate(-90 30 200)">Latency (ms)</text>
  <text x="670" y="200" font-size="12" fill="green" text-anchor="middle" transform="rotate(90 670 200)">Throughput (req/s)</text>
  
  <!-- Axes -->
  <line x1="80" y1="60" x2="80" y2="340" stroke="black" stroke-width="2"/>
  <line x1="80" y1="340" x2="620" y2="340" stroke="black" stroke-width="2"/>
  <line x1="620" y1="60" x2="620" y2="340" stroke="black" stroke-width="2"/>
  
  <!-- Latency line -->
  <polyline fill="none" stroke="red" stroke-width="2" points="80.0,62.34827411703941 101.6,102.11249885377953 123.2,129.55173950933928 144.8,160.25287511661918 166.4,182.3658711256532 188.0,199.34896437777246 209.60000000000002,217.67093209802914 231.20000000000002,228.57828461124987 252.8,240.58351562344632 274.4,246.26916936123897 296.0,252.12376329507674 317.6,259.98806880169855 339.20000000000005,261.75764097232104 360.8,265.9085341622157 382.40000000000003,270.77294699871857 404.0,272.33399441526865 425.6,274.69649358397623 447.20000000000005,278.98915421015766 468.8,278.41581112282427 490.40000000000003,281.1951550894944 512.0,279.40589455467943 533.6,280.30727507239965 555.2,281.3107144591911 576.8,280.65155407721454 598.4000000000001,284.89288313555846 "/>
  
  <!-- Throughput line -->
  <polyline fill="none" stroke="green" stroke-width="2" points="80.0,340.88060279388975 101.6,290.1092631243772 123.2,244.356765493122 144.8,212.87166698504362 166.4,184.653588892861 188.0,159.93389500459838 209.60000000000002,146.09698176171295 231.20000000000002,128.73149560109772 252.8,119.9093152580148 274.4,104.8721684442373 296.0,94.57340190866182 317.6,92.82951722401205 339.20000000000005,80.93171863204805 360.8,77.29890249321272 382.40000000000003,78.002137373756 404.0,72.64061329802865 425.6,70.96793683190782 447.20000000000005,75.79931285995923 468.8,69.0732719153005 490.40000000000003,72.17778613817018 512.0,63.79968917715894 533.6,63.29000991621689 555.2,63.60429439347479 576.8,59.79585324749763 598.4000000000001,69.86474916842297 "/>
  
  <!-- Convergence marker -->
  <line x1="535" y1="60" x2="535" y2="340" stroke="orange" stroke-width="2" stroke-dasharray="5,5"/>
  <text x="535" y="55" font-size="10" text-anchor="middle" fill="orange">Converged</text>
  
  <!-- Left Y-axis labels (Latency) -->
  <text x="70" y="345" font-size="10" text-anchor="end" fill="red">50</text>
  <text x="70" y="255" font-size="10" text-anchor="end" fill="red">100</text>
  <text x="70" y="165" font-size="10" text-anchor="end" fill="red">150</text>
  <text x="70" y="75" font-size="10" text-anchor="end" fill="red">200</text>
  
  <!-- Right Y-axis labels (Throughput) -->
  <text x="630" y="345" font-size="10" fill="green">2000</text>
  <text x="630" y="255" font-size="10" fill="green">3000</text>
  <text x="630" y="165" font-size="10" fill="green">4000</text>
  <text x="630" y="75" font-size="10" fill="green">6000</text>
  
  <!-- X-axis labels -->
  <text x="80" y="355" font-size="10" text-anchor="middle">0</text>
  <text x="188" y="355" font-size="10" text-anchor="middle">10</text>
  <text x="296" y="355" font-size="10" text-anchor="middle">20</text>
  <text x="404" y="355" font-size="10" text-anchor="middle">30</text>
  <text x="512" y="355" font-size="10" text-anchor="middle">40</text>
  <text x="620" y="355" font-size="10" text-anchor="middle">50</text>
  
  <!-- Legend -->
  <line x1="250" y1="70" x2="280" y2="70" stroke="red" stroke-width="2"/>
  <text x="285" y="74" font-size="10">Latency</text>
  <line x1="350" y1="70" x2="380" y2="70" stroke="green" stroke-width="2"/>
  <text x="385" y="74" font-size="10">Throughput</text>
</svg>