<svg width="700" height="400" xmlns="http://www.w3.org/2000/svg">
  <rect width="700" height="400" fill="white" stroke="black"/>
  <text x="350" y="30" font-size="16" font-weight="bold" text-anchor="middle">Compositional Verification Speedup (Measured)</text>
  <text x="350" y="380" font-size="12" text-anchor="middle">Number of Components</text>
  <text x="30" y="200" font-size="12" text-anchor="middle" transform="rotate(-90 30 200)">Speedup Factor</text>
  
  <!-- Grid -->
  <g stroke="lightgray" stroke-width="0.5">
    <line x1="80" y1="60" x2="650" y2="60"/>
    <line x1="80" y1="110" x2="650" y2="110"/>
    <line x1="80" y1="160" x2="650" y2="160"/>
    <line x1="80" y1="210" x2="650" y2="210"/>
    <line x1="80" y1="260" x2="650" y2="260"/>
    <line x1="80" y1="310" x2="650" y2="310"/>
  </g>
  
  <!-- Axes -->
  <line x1="80" y1="60" x2="80" y2="340" stroke="black" stroke-width="2"/>
  <line x1="80" y1="340" x2="650" y2="340" stroke="black" stroke-width="2"/>
  
  <!-- Speedup line -->
  <polyline fill="none" stroke="green" stroke-width="3" points="113.33333333333334,324.0 146.66666666666669,308.0 213.33333333333334,276.0 346.6666666666667,212.0 613.3333333333334,84.0 "/>
  <circle cx="113.33333333333334" cy="324.0" r="4" fill="green"/>
  <text x="113.33333333333334" y="314.0" font-size="10" text-anchor="middle">17.1x</text>
  <text x="113.33333333333334" y="355" font-size="10" text-anchor="middle">4</text>
  <circle cx="146.66666666666669" cy="308.0" r="4" fill="green"/>
  <text x="146.66666666666669" y="298.0" font-size="10" text-anchor="middle">34.3x</text>
  <text x="146.66666666666669" y="355" font-size="10" text-anchor="middle">8</text>
  <circle cx="213.33333333333334" cy="276.0" r="4" fill="green"/>
  <text x="213.33333333333334" y="266.0" font-size="10" text-anchor="middle">68.6x</text>
  <text x="213.33333333333334" y="355" font-size="10" text-anchor="middle">16</text>
  <circle cx="346.6666666666667" cy="212.0" r="4" fill="green"/>
  <text x="346.6666666666667" y="202.0" font-size="10" text-anchor="middle">137.1x</text>
  <text x="346.6666666666667" y="355" font-size="10" text-anchor="middle">32</text>
  <circle cx="613.3333333333334" cy="84.0" r="4" fill="green"/>
  <text x="613.3333333333334" y="74.0" font-size="10" text-anchor="middle">274.3x</text>
  <text x="613.3333333333334" y="355" font-size="10" text-anchor="middle">64</text>
  <text x="70" y="345.0" font-size="10" text-anchor="end">0x</text>
  <text x="70" y="298.3333333333333" font-size="10" text-anchor="end">50x</text>
  <text x="70" y="251.66666666666669" font-size="10" text-anchor="end">100x</text>
  <text x="70" y="205.0" font-size="10" text-anchor="end">150x</text>
  <text x="70" y="158.33333333333334" font-size="10" text-anchor="end">200x</text>
  <text x="70" y="111.66666666666666" font-size="10" text-anchor="end">250x</text>
  <text x="70" y="65.0" font-size="10" text-anchor="end">300x</text>
</svg>