<svg width="600" height="400" xmlns="http://www.w3.org/2000/svg">
    <!-- Background -->
    <rect width="600" height="400" fill="white"/>
    
    <!-- Title -->
    <text x="300.0" y="30" font-family="Arial" font-size="16" font-weight="bold" text-anchor="middle">Latency Reduction During Training</text>
    
    <!-- Grid -->
    <g stroke="lightgray" stroke-width="0.5">
        <line x1="60" y1="70.0" x2="560" y2="70.0"/>
        <line x1="60" y1="142.5" x2="560" y2="142.5"/>
        <line x1="60" y1="215.0" x2="560" y2="215.0"/>
        <line x1="60" y1="287.5" x2="560" y2="287.5"/>
        <line x1="60" y1="360.0" x2="560" y2="360.0"/>
        <line x1="60.0" y1="70" x2="60.0" y2="360"/>
        <line x1="160.0" y1="70" x2="160.0" y2="360"/>
        <line x1="260.0" y1="70" x2="260.0" y2="360"/>
        <line x1="360.0" y1="70" x2="360.0" y2="360"/>
        <line x1="460.0" y1="70" x2="460.0" y2="360"/>
        <line x1="560.0" y1="70" x2="560.0" y2="360"/>
    </g>
    
    <!-- Axes -->
    <g stroke="black" stroke-width="2">
        <line x1="60" y1="70" x2="60" y2="360"/>
        <line x1="60" y1="360" x2="560" y2="360"/>
    </g>
    
    <!-- Data line -->
    <polyline fill="none" stroke="red" stroke-width="2" points="60.0,94.16666666666669 70.20408163265306,119.22850953327199 80.40816326530611,137.26895954591458 90.61224489795919,151.78331485315746 100.81632653061224,167.0116288661429 111.0204081632653,182.61500489891824 121.22448979591837,200.2900178560289 131.42857142857144,216.95068662640423 141.6326530612245,224.2593228463608 151.83673469387756,236.9923728758224 162.0408163265306,242.66808761405622 172.24489795918367,249.37572314003 182.44897959183675,262.52812069733596 192.65306122448982,265.63043866747284 202.85714285714286,274.35110745678014 213.06122448979593,276.97366390698375 223.26530612244898,287.3641357905784 233.46938775510205,292.1601190839902 243.67346938775512,293.5270803529026 253.87755102040816,294.25634171564116 264.0816326530612,299.8731470522035 274.2857142857143,303.60774088817493 284.48979591836735,308.3976336097172 294.6938775510204,310.577216923336 304.8979591836735,310.31575519951565 315.1020408163265,311.9399711716185 325.30612244897964,314.81510141249504 335.51020408163265,317.1916357248482 345.7142857142857,320.0878647607717 355.9183673469388,321.0611926874209 366.12244897959187,321.779956669818 376.32653061224494,323.77578816685104 386.53061224489795,324.3407794136481 396.734693877551,324.62739470365545 406.9387755102041,328.9937939453242 417.14285714285717,329.3033871276166 427.34693877551024,328.3723207031286 437.55102040816325,328.4407521853698 447.7551020408163,331.38498091357405 457.9591836734694,330.4864285296396 468.16326530612247,329.4455181899963 478.36734693877554,331.9022303402871 488.57142857142856,330.42256646209626 498.7755102040816,328.5947596856446 508.9795918367347,331.5102410897898 519.1836734693877,331.8779079635077 529.3877551020408,330.7957464900221 539.5918367346939,331.22808768973255 549.795918367347,335.3931203475614 560.0,335.8333333333333 "/>
    
    <!-- Labels -->
    <text x="300.0" y="390" font-family="Arial" font-size="12" text-anchor="middle">Episode</text>
    <text x="20" y="200.0" font-family="Arial" font-size="12" text-anchor="middle" transform="rotate(-90 20 200.0)">Latency (ms)</text>
    <!-- Y-axis values -->
    <text x="50" y="75.0" font-family="Arial" font-size="10" text-anchor="end">211</text>
    <text x="50" y="147.5" font-family="Arial" font-size="10" text-anchor="end">175</text>
    <text x="50" y="220.0" font-family="Arial" font-size="10" text-anchor="end">139</text>
    <text x="50" y="292.5" font-family="Arial" font-size="10" text-anchor="end">103</text>
    <text x="50" y="365.0" font-family="Arial" font-size="10" text-anchor="end">67</text>
    <!-- X-axis values -->
    <text x="60.0" y="375" font-family="Arial" font-size="10" text-anchor="middle">0</text>
    <text x="160.0" y="375" font-family="Arial" font-size="10" text-anchor="middle">10</text>
    <text x="260.0" y="375" font-family="Arial" font-size="10" text-anchor="middle">20</text>
    <text x="360.0" y="375" font-family="Arial" font-size="10" text-anchor="middle">29</text>
    <text x="460.0" y="375" font-family="Arial" font-size="10" text-anchor="middle">39</text>
    <text x="560.0" y="375" font-family="Arial" font-size="10" text-anchor="middle">49</text>
</svg>