<svg width="600" height="400" xmlns="http://www.w3.org/2000/svg">
    <!-- Background -->
    <rect width="600" height="400" fill="white"/>
    
    <!-- Title -->
    <text x="300.0" y="30" font-family="Arial" font-size="16" font-weight="bold" text-anchor="middle">Template Code Generation Speed</text>
    
    <!-- Axes -->
    <g stroke="black" stroke-width="2">
        <line x1="60" y1="70" x2="60" y2="340"/>
        <line x1="60" y1="340" x2="560" y2="340"/>
    </g>
    
    <!-- Bars -->
    <rect x="68.0" y="94.54545454545456" width="64.0" height="245.45454545454544" fill="steelblue" opacity="0.8"/>
    <text x="100.0" y="89.54545454545456" font-family="Arial" font-size="10" text-anchor="middle">12</text>
    <text x="100.0" y="355" font-family="Arial" font-size="9" text-anchor="middle">Queue</text>
    <rect x="148.0" y="176.3636363636364" width="64.0" height="163.6363636363636" fill="steelblue" opacity="0.8"/>
    <text x="180.0" y="171.3636363636364" font-family="Arial" font-size="10" text-anchor="middle">8</text>
    <text x="180.0" y="355" font-family="Arial" font-size="9" text-anchor="middle">Rate Lim</text>
    <rect x="228.0" y="135.45454545454547" width="64.0" height="204.54545454545453" fill="steelblue" opacity="0.8"/>
    <text x="260.0" y="130.45454545454547" font-family="Arial" font-size="10" text-anchor="middle">10</text>
    <text x="260.0" y="355" font-family="Arial" font-size="9" text-anchor="middle">Circuit</text>
    <rect x="308.0" y="237.72727272727275" width="64.0" height="102.27272727272727" fill="steelblue" opacity="0.8"/>
    <text x="340.0" y="232.72727272727275" font-family="Arial" font-size="10" text-anchor="middle">5</text>
    <text x="340.0" y="355" font-family="Arial" font-size="9" text-anchor="middle">Retry</text>
    <rect x="388.0" y="196.8181818181818" width="64.0" height="143.1818181818182" fill="steelblue" opacity="0.8"/>
    <text x="420.0" y="191.8181818181818" font-family="Arial" font-size="10" text-anchor="middle">7</text>
    <text x="420.0" y="355" font-family="Arial" font-size="9" text-anchor="middle">Cache</text>
    <rect x="468.0" y="155.90909090909093" width="64.0" height="184.09090909090907" fill="steelblue" opacity="0.8"/>
    <text x="500.0" y="150.90909090909093" font-family="Arial" font-size="10" text-anchor="middle">9</text>
    <text x="500.0" y="355" font-family="Arial" font-size="9" text-anchor="middle">LB</text>
    
    <!-- Y-axis label -->
    <text x="20" y="200.0" font-family="Arial" font-size="12" text-anchor="middle" transform="rotate(-90 20 200.0)">Time (ms)</text>
</svg>