<svg width="600" height="400" xmlns="http://www.w3.org/2000/svg">
    <!-- Background -->
    <rect width="600" height="400" fill="white"/>
    
    <!-- Title -->
    <text x="300.0" y="30" font-family="Arial" font-size="16" font-weight="bold" text-anchor="middle">Throughput Improvement During Training</text>
    
    <!-- Grid -->
    <g stroke="lightgray" stroke-width="0.5">
        <line x1="60" y1="70.0" x2="560" y2="70.0"/>
        <line x1="60" y1="142.5" x2="560" y2="142.5"/>
        <line x1="60" y1="215.0" x2="560" y2="215.0"/>
        <line x1="60" y1="287.5" x2="560" y2="287.5"/>
        <line x1="60" y1="360.0" x2="560" y2="360.0"/>
        <line x1="60.0" y1="70" x2="60.0" y2="360"/>
        <line x1="160.0" y1="70" x2="160.0" y2="360"/>
        <line x1="260.0" y1="70" x2="260.0" y2="360"/>
        <line x1="360.0" y1="70" x2="360.0" y2="360"/>
        <line x1="460.0" y1="70" x2="460.0" y2="360"/>
        <line x1="560.0" y1="70" x2="560.0" y2="360"/>
    </g>
    
    <!-- Axes -->
    <g stroke="black" stroke-width="2">
        <line x1="60" y1="70" x2="60" y2="360"/>
        <line x1="60" y1="360" x2="560" y2="360"/>
    </g>
    
    <!-- Data line -->
    <polyline fill="none" stroke="green" stroke-width="2" points="60.0,335.8333333333333 70.20408163265306,314.04265722665974 80.40816326530611,292.5495502994262 90.61224489795919,271.74616289613954 100.81632653061224,253.54445030361563 111.0204081632653,238.02512028306393 121.22448979591837,226.70264976229186 131.42857142857144,217.5416211401627 141.6326530612245,202.64606237014738 151.83673469387756,194.71271868104955 162.0408163265306,181.57193129759946 172.24489795918367,170.98186666849278 182.44897959183675,169.7756313661307 192.65306122448982,158.06078843001882 202.85714285714286,154.97113851352748 213.06122448979593,145.01859411452023 223.26530612244898,147.45001848120933 233.46938775510205,143.1722242163699 243.67346938775512,134.6304906851487 253.87755102040816,125.81172085316211 264.0816326530612,125.85054555972215 274.2857142857143,123.745616756228 284.48979591836735,124.36384210029266 294.6938775510204,121.19687696248002 304.8979591836735,114.22068385022715 315.1020408163265,111.21383980751267 325.30612244897964,111.1236210864914 335.51020408163265,110.66033467011246 345.7142857142857,111.72314566452002 355.9183673469388,109.50197542768421 366.12244897959187,107.15231798229902 376.32653061224494,107.70953007586343 386.53061224489795,105.72632123459118 396.734693877551,103.45762379334127 406.9387755102041,109.84518500920552 417.14285714285717,108.16712251631932 427.34693877551024,104.11107401625483 437.55102040816325,102.31624906078201 447.7551020408163,106.75774674388154 457.9591836734694,103.27474147615487 468.16326530612247,99.61521843050707 478.36734693877554,103.53553055618323 488.57142857142856,99.18070465381538 498.7755102040816,94.16666666666669 508.9795918367347,99.44863969774178 519.1836734693877,99.35149147911415 529.3877551020408,96.20185240922626 539.5918367346939,96.40220761873917 549.795918367347,104.78582733029828 560.0,105.15406611034601 "/>
    
    <!-- Labels -->
    <text x="300.0" y="390" font-family="Arial" font-size="12" text-anchor="middle">Episode</text>
    <text x="20" y="200.0" font-family="Arial" font-size="12" text-anchor="middle" transform="rotate(-90 20 200.0)">Throughput (req/s)</text>
    <!-- Y-axis values -->
    <text x="50" y="75.0" font-family="Arial" font-size="10" text-anchor="end">6442</text>
    <text x="50" y="147.5" font-family="Arial" font-size="10" text-anchor="end">5227</text>
    <text x="50" y="220.0" font-family="Arial" font-size="10" text-anchor="end">4012</text>
    <text x="50" y="292.5" font-family="Arial" font-size="10" text-anchor="end">2797</text>
    <text x="50" y="365.0" font-family="Arial" font-size="10" text-anchor="end">1582</text>
    <!-- X-axis values -->
    <text x="60.0" y="375" font-family="Arial" font-size="10" text-anchor="middle">0</text>
    <text x="160.0" y="375" font-family="Arial" font-size="10" text-anchor="middle">10</text>
    <text x="260.0" y="375" font-family="Arial" font-size="10" text-anchor="middle">20</text>
    <text x="360.0" y="375" font-family="Arial" font-size="10" text-anchor="middle">29</text>
    <text x="460.0" y="375" font-family="Arial" font-size="10" text-anchor="middle">39</text>
    <text x="560.0" y="375" font-family="Arial" font-size="10" text-anchor="middle">49</text>
</svg>